<?xml version="1.0" encoding="UTF-8" standalone="no"?>
<!DOCTYPE svg PUBLIC "-//W3C//DTD SVG 20010904//EN"
              "http://www.w3.org/TR/2001/REC-SVG-20010904/DTD/svg10.dtd">

<svg xmlns="http://www.w3.org/2000/svg"
     width="1.4in" height="1.88333in"
     viewBox="0 0 420 565">
  <path id="Selection"
        fill="none" stroke="black" stroke-width="1"
        d="M 182.00,97.95
           C 184.73,97.64 192.66,97.15 194.40,95.40
             197.34,92.46 195.29,83.90 195.02,80.00
             195.02,80.00 191.27,48.00 191.27,48.00
             190.75,44.36 189.75,34.90 188.35,32.06
             183.92,23.07 163.95,33.41 168.24,20.00
             169.34,16.53 171.03,11.13 174.21,9.16
             177.31,7.24 183.37,7.16 187.00,6.72
             192.58,6.03 194.45,6.03 200.00,6.00
             200.00,6.00 221.00,5.00 221.00,5.00
             224.03,5.02 229.09,5.12 231.79,6.51
             234.64,7.98 238.17,14.94 238.98,18.00
             241.48,27.41 226.03,24.70 222.31,27.17
             219.52,29.04 220.01,33.06 220.00,36.00
             220.00,36.00 219.00,58.00 219.00,58.00
             219.00,58.00 218.00,95.00 218.00,95.00
             218.00,95.00 215.00,96.00 215.00,96.00
             229.45,96.00 241.57,95.49 256.00,97.92
             260.13,98.62 300.79,105.63 305.00,105.96
             309.97,106.24 354.04,113.94 354.04,113.94
             354.04,113.94 377.86,115.84 377.86,115.84
             377.86,115.84 386.28,128.53 377.00,136.00
             370.35,135.87 370.00,136.00 363.00,136.00
             363.00,136.00 354.00,136.00 354.00,136.00
             354.00,136.00 345.00,138.89 345.00,138.89
             345.00,138.89 304.90,147.70 299.00,148.09
             294.28,148.40 278.68,149.52 270.00,152.00
             270.00,152.00 282.43,187.00 282.43,187.00
             282.43,187.00 288.66,198.04 288.66,198.04
             288.66,198.04 294.23,220.00 294.23,220.00
             294.23,220.00 299.00,241.00 299.00,241.00
             303.61,241.75 319.21,259.24 320.86,267.00
             320.86,267.00 323.04,280.04 323.04,280.04
             323.48,283.57 323.44,286.80 323.07,292.00
             323.07,292.00 323.07,303.00 323.07,303.00
             323.07,303.00 323.07,313.00 323.07,313.00
             323.07,313.00 323.07,361.00 323.07,361.00
             323.07,361.00 323.07,495.00 323.07,495.00
             323.07,495.00 323.75,509.83 323.75,509.83
             322.91,514.12 314.78,524.65 314.78,524.65
             314.78,524.65 298.00,543.00 298.00,543.00
             298.00,543.00 246.01,549.99 234.00,550.47
             208.22,551.48 214.60,549.56 193.00,548.19
             193.00,548.19 181.00,548.19 181.00,548.19
             181.00,548.19 163.89,549.49 160.00,549.24
             156.01,548.99 151.81,549.25 148.00,547.87
             143.56,546.26 136.59,543.61 136.00,543.00
             134.75,542.08 124.19,523.13 122.96,520.00
             120.07,512.60 120.01,514.34 120.00,506.00
             120.00,506.00 120.00,460.00 120.00,460.00
             120.00,460.00 120.00,343.00 120.00,343.00
             120.00,343.00 119.00,328.00 119.00,328.00
             119.00,328.00 119.00,280.00 119.00,280.00
             119.01,273.02 120.35,267.48 123.26,261.09
             125.05,257.15 127.58,256.46 128.00,252.00
             132.57,249.30 133.29,248.58 136.00,244.00
             136.00,244.00 139.51,242.36 139.51,242.36
             139.51,242.36 144.00,223.00 144.00,223.00
             144.00,223.00 147.49,204.00 147.49,204.00
             147.49,204.00 152.99,193.00 152.99,193.00
             152.99,193.00 161.00,160.00 161.00,160.00
             161.00,160.00 122.00,162.42 122.00,162.42
             118.87,162.84 111.43,162.82 109.27,164.17
             105.94,166.26 104.36,174.28 103.29,178.00
             103.29,178.00 94.65,207.00 94.65,207.00
             93.07,211.71 90.33,216.02 90.00,221.00
             90.00,221.00 88.00,220.00 88.00,220.00
             88.00,220.00 90.00,224.00 90.00,224.00
             90.00,224.00 89.00,224.00 89.00,224.00
             89.00,224.00 87.00,222.00 87.00,222.00
             87.00,222.00 84.28,230.00 84.28,230.00
             84.28,230.00 78.78,249.00 78.78,249.00
             78.78,249.00 74.00,264.00 74.00,264.00
             69.81,265.56 65.93,281.55 66.00,286.00
             62.60,289.42 61.83,291.21 62.00,296.00
             57.79,297.42 57.89,300.28 59.00,304.00
             54.75,304.59 54.20,307.12 54.00,311.00
             54.00,311.00 54.00,312.00 54.00,312.00
             54.00,312.00 49.00,315.00 49.00,315.00
             48.83,318.09 49.05,318.27 46.00,319.00
             46.00,319.00 45.00,320.00 45.00,320.00
             45.00,320.00 46.00,322.00 46.00,322.00
             46.00,322.00 45.00,323.00 45.00,323.00
             45.00,323.00 36.00,327.00 36.00,327.00
             36.00,327.00 30.01,289.00 30.01,289.00
             30.01,289.00 33.79,270.00 33.79,270.00
             33.79,270.00 44.11,227.00 44.11,227.00
             44.11,227.00 57.12,173.00 57.12,173.00
             57.12,173.00 64.00,146.00 64.00,146.00
             64.00,146.00 59.00,144.00 59.00,144.00
             59.00,144.00 65.35,122.00 65.35,122.00
             66.18,118.40 66.79,112.99 69.43,110.31
             72.83,106.86 82.27,108.05 87.00,108.00
             87.00,108.00 123.00,104.00 123.00,104.00
             123.00,104.00 173.54,98.90 182.00,97.95 Z
           M 194.00,92.00
           C 194.00,92.00 195.00,92.00 195.00,92.00
             195.00,92.00 194.00,93.00 194.00,93.00
             194.00,93.00 194.00,92.00 194.00,92.00 Z
           M 382.00,129.00 382.00,129.00 382.00,129.00 382.00,129.00
           M 52.00,176.00
           C 52.00,176.00 53.00,176.00 53.00,176.00
             53.00,176.00 52.00,177.00 52.00,177.00
             52.00,177.00 52.00,176.00 52.00,176.00 Z
           M 130.00,252.00
           C 130.00,252.00 129.00,252.00 129.00,252.00
             129.00,252.00 130.00,253.00 130.00,253.00
             130.00,253.00 130.00,252.00 130.00,252.00 Z
           M 315.00,253.00
           C 315.00,253.00 314.00,253.00 314.00,253.00
             314.00,253.00 315.00,254.00 315.00,254.00
             315.00,254.00 315.00,253.00 315.00,253.00 Z
           M 77.00,256.00
           C 77.00,256.00 78.00,256.00 78.00,256.00
             78.00,256.00 77.00,257.00 77.00,257.00
             77.00,257.00 77.00,256.00 77.00,256.00 Z
           M 57.00,302.00
           C 57.00,302.00 56.00,302.00 56.00,302.00
             56.00,302.00 57.00,303.00 57.00,303.00
             57.00,303.00 57.00,302.00 57.00,302.00 Z
           M 51.00,314.00 51.00,314.00 51.00,314.00 51.00,314.00
           M 191.00,549.00
           C 191.00,549.00 192.00,549.00 192.00,549.00
             192.00,549.00 191.00,550.00 191.00,550.00
             191.00,550.00 191.00,549.00 191.00,549.00 Z
           M 244.00,555.00
           C 244.00,555.00 245.00,555.00 245.00,555.00
             245.00,555.00 244.00,556.00 244.00,556.00
             244.00,556.00 244.00,555.00 244.00,555.00 Z" />
</svg>
