<?xml version="1.0" encoding="UTF-8" standalone="no"?>
<!DOCTYPE svg PUBLIC "-//W3C//DTD SVG 20010904//EN"
              "http://www.w3.org/TR/2001/REC-SVG-20010904/DTD/svg10.dtd">

<svg xmlns="http://www.w3.org/2000/svg"
     width="0.82in" height="1.21333in"
     viewBox="0 0 246 364">
  <path id="Selection"
        fill="none" stroke="black" stroke-width="1"
        d="M 126.00,16.00
           C 126.34,11.86 126.29,11.09 130.00,9.00
             130.00,9.00 128.00,23.00 128.00,23.00
             128.00,23.00 134.00,21.00 134.00,21.00
             134.00,21.00 133.00,28.00 133.00,28.00
             133.00,28.00 141.00,26.00 141.00,26.00
             141.00,26.00 134.00,35.00 134.00,35.00
             134.00,35.00 144.00,35.00 144.00,35.00
             144.00,35.00 139.00,47.00 139.00,47.00
             139.00,47.00 149.17,50.53 149.17,50.53
             149.17,50.53 155.00,52.00 155.00,52.00
             155.00,52.00 153.00,60.00 153.00,60.00
             148.50,60.36 147.96,60.54 145.00,64.00
             145.00,64.00 157.00,70.00 157.00,70.00
             157.00,70.00 155.00,71.00 155.00,71.00
             160.65,69.86 166.76,66.61 170.00,73.00
             167.92,74.50 165.39,76.58 163.00,77.42
             157.10,79.50 155.83,76.20 150.00,83.00
             150.00,83.00 160.00,82.11 160.00,82.11
             160.00,82.11 170.00,85.00 170.00,85.00
             171.02,91.20 173.11,91.79 179.00,92.00
             179.69,94.34 181.67,98.43 180.56,100.67
             179.22,103.35 169.76,103.68 168.00,96.00
             168.00,96.00 164.00,97.00 164.00,97.00
             164.00,97.00 165.00,103.00 165.00,103.00
             159.20,102.23 159.17,105.02 159.00,110.00
             159.00,110.00 170.00,107.00 170.00,107.00
             171.62,109.00 178.47,117.71 180.13,118.40
             180.13,118.40 198.78,120.29 198.78,120.29
             201.52,121.10 202.34,123.76 204.27,125.80
             209.05,130.84 211.83,129.80 214.00,140.00
             209.13,138.29 208.87,138.83 206.00,143.00
             206.00,143.00 200.00,137.00 200.00,137.00
             199.80,143.11 198.96,143.56 193.00,145.00
             192.99,142.54 193.22,138.38 191.83,136.32
             188.25,131.03 184.90,137.97 184.00,141.00
             177.03,139.92 168.18,135.31 165.00,145.23
             172.29,140.84 172.98,142.94 180.00,145.23
             182.13,146.22 184.83,146.68 186.68,147.93
             186.68,147.93 192.18,153.44 192.18,153.44
             192.18,153.44 198.12,157.54 198.12,157.54
             199.68,159.26 200.71,162.79 204.17,164.84
             211.19,168.99 218.84,163.27 222.00,176.00
             222.00,176.00 217.00,176.00 217.00,176.00
             217.00,176.00 222.00,180.00 222.00,180.00
             218.54,185.42 215.59,189.20 208.28,186.44
             208.28,186.44 202.96,183.33 202.96,183.33
             199.34,182.05 197.37,184.36 193.00,183.33
             189.38,182.47 184.17,178.64 181.09,178.50
             178.16,178.37 168.45,182.80 171.79,187.49
             173.34,189.68 177.57,189.89 180.00,190.51
             185.03,191.81 187.66,193.33 190.00,198.00
             190.00,198.00 186.00,197.00 186.00,197.00
             186.00,197.00 186.00,201.00 186.00,201.00
             186.00,201.00 178.00,201.00 178.00,201.00
             178.00,201.00 178.00,204.00 178.00,204.00
             188.45,204.52 185.51,207.88 192.00,210.42
             192.00,210.42 209.00,213.89 209.00,213.89
             212.83,215.40 222.04,224.88 222.27,229.00
             222.39,231.11 220.97,233.22 220.00,235.00
             220.00,235.00 225.00,239.00 225.00,239.00
             225.00,239.00 218.00,234.00 218.00,234.00
             218.00,234.00 218.00,243.00 218.00,243.00
             210.84,239.18 211.74,235.98 201.00,235.00
             204.27,244.79 206.82,246.65 200.00,251.00
             196.87,248.05 191.66,241.96 188.00,247.00
             188.00,247.00 176.00,245.70 176.00,245.70
             168.16,244.56 162.53,240.79 156.00,248.00
             163.50,248.01 172.26,250.05 178.96,253.56
             182.87,255.60 183.49,257.89 187.04,259.49
             191.38,261.45 196.37,260.50 200.00,261.50
             202.42,262.16 204.82,263.72 207.00,264.97
             215.24,269.68 215.64,271.81 214.00,281.00
             207.08,279.85 209.30,280.30 203.00,283.00
             203.00,283.00 201.00,280.00 201.00,280.00
             201.00,280.00 199.00,284.00 199.00,284.00
             199.00,284.00 188.00,276.00 188.00,276.00
             188.00,276.00 186.00,283.00 186.00,283.00
             186.00,283.00 178.00,278.00 178.00,278.00
             178.00,284.22 178.37,288.04 174.00,293.00
             174.00,293.00 166.00,281.00 166.00,281.00
             164.62,286.20 164.08,296.56 157.00,289.00
             157.00,289.00 155.00,294.00 155.00,294.00
             155.00,294.00 145.00,288.00 145.00,288.00
             145.00,288.00 141.00,291.00 141.00,291.00
             141.00,291.00 136.00,287.00 136.00,287.00
             135.95,293.04 134.99,305.54 133.00,311.00
             127.31,309.62 122.69,309.62 117.00,311.00
             117.00,311.00 116.00,310.00 116.00,310.00
             117.60,303.43 116.67,302.05 117.09,296.00
             117.27,293.31 118.24,289.50 117.67,287.00
             117.06,284.31 114.21,280.18 111.04,280.62
             107.87,281.06 105.85,286.32 101.91,288.57
             96.36,291.72 87.91,284.82 86.00,296.18
             83.41,296.06 76.97,297.01 75.17,296.18
             70.19,294.59 71.40,289.98 61.00,289.00
             60.38,292.54 60.42,292.80 57.00,294.00
             57.00,294.00 56.00,299.00 56.00,299.00
             56.00,299.00 53.00,298.00 53.00,298.00
             53.00,298.00 52.00,301.00 52.00,301.00
             52.00,301.00 42.00,300.00 42.00,300.00
             42.00,300.00 45.00,295.00 45.00,295.00
             45.00,295.00 36.00,293.00 36.00,293.00
             36.00,293.00 38.00,286.00 38.00,286.00
             31.55,284.92 31.92,281.97 35.11,277.00
             38.48,271.74 41.21,267.84 47.72,267.91
             53.16,267.97 55.29,265.58 60.00,264.13
             69.24,261.28 79.65,261.43 86.79,253.90
             89.56,250.97 94.29,243.28 92.68,239.11
             92.04,237.44 91.19,237.07 90.00,236.00
             87.71,241.75 86.71,248.70 79.00,243.87
             79.00,243.87 75.00,241.00 75.00,241.00
             74.09,242.94 73.35,244.88 71.61,246.26
             67.27,249.72 57.91,248.30 56.00,243.00
             56.00,243.00 46.00,244.00 46.00,244.00
             45.59,238.38 47.87,238.86 51.58,235.59
             51.58,235.59 66.00,224.00 66.00,224.00
             63.37,219.52 66.63,216.86 70.00,214.00
             70.00,214.00 60.00,214.00 60.00,214.00
             60.28,212.32 60.43,210.74 61.31,209.22
             62.36,207.43 71.03,200.83 73.04,200.31
             75.68,199.63 80.25,200.46 82.91,199.40
             86.04,198.16 86.92,195.42 89.32,194.01
             92.02,192.45 95.19,193.32 98.00,194.01
             98.00,194.01 105.00,178.00 105.00,178.00
             105.00,178.00 90.00,181.87 90.00,181.87
             90.00,181.87 83.58,180.47 83.58,180.47
             83.58,180.47 71.00,184.00 71.00,184.00
             71.00,184.00 72.00,176.00 72.00,176.00
             70.04,177.61 68.58,178.55 67.60,181.04
             66.79,183.09 67.26,185.64 66.01,187.30
             63.99,189.97 55.33,191.37 52.00,192.00
             52.00,192.00 55.58,184.04 55.58,184.04
             55.58,184.04 54.46,177.83 54.46,177.83
             54.46,177.83 57.00,170.00 57.00,170.00
             57.00,170.00 47.00,169.00 47.00,169.00
             48.33,166.06 51.61,160.62 54.46,159.03
             55.75,158.32 68.64,158.00 71.00,158.00
             84.97,157.98 79.61,156.86 86.09,156.11
             86.09,156.11 95.00,155.58 95.00,155.58
             103.69,154.43 113.03,155.94 114.00,144.00
             114.00,144.00 111.00,145.00 111.00,145.00
             109.70,142.85 107.48,138.71 104.30,140.17
             102.39,141.04 102.08,143.74 100.42,144.98
             99.20,145.90 94.78,146.56 93.00,147.00
             93.00,147.00 93.00,135.00 93.00,135.00
             93.00,135.00 83.63,139.20 83.63,139.20
             83.63,139.20 72.00,139.20 72.00,139.20
             72.00,139.20 72.00,143.00 72.00,143.00
             72.00,143.00 66.00,142.00 66.00,142.00
             66.00,142.00 74.00,128.00 74.00,128.00
             66.07,128.64 64.20,129.40 56.00,127.00
             56.00,127.00 69.00,120.97 69.00,120.97
             69.00,120.97 79.00,115.30 79.00,115.30
             79.00,115.30 99.00,116.00 99.00,116.00
             99.00,116.00 106.40,114.26 106.40,114.26
             106.40,114.26 110.00,104.00 110.00,104.00
             110.00,104.00 100.00,102.71 100.00,102.71
             100.00,102.71 89.00,107.00 89.00,107.00
             89.00,107.00 91.00,98.00 91.00,98.00
             91.00,98.00 85.00,99.00 85.00,99.00
             85.71,91.03 81.26,89.64 88.00,87.00
             88.00,87.00 91.22,90.40 91.22,90.40
             91.22,90.40 117.00,89.00 117.00,89.00
             117.00,89.00 117.00,83.00 117.00,83.00
             117.00,83.00 101.00,83.00 101.00,83.00
             101.00,83.00 106.00,78.00 106.00,78.00
             106.00,78.00 92.59,72.06 92.59,72.06
             92.59,72.06 91.00,69.00 91.00,69.00
             104.22,71.14 106.89,65.31 117.00,69.00
             117.00,69.00 118.00,68.00 118.00,68.00
             118.00,68.00 117.00,63.00 117.00,63.00
             111.58,61.27 111.83,59.06 113.00,54.00
             108.61,52.37 108.38,51.57 108.00,47.00
             114.72,47.46 116.93,48.12 121.00,42.00
             114.06,40.22 113.41,40.86 110.00,34.00
             110.00,34.00 122.00,34.00 122.00,34.00
             122.00,34.00 118.00,24.00 118.00,24.00
             121.56,23.54 121.33,23.60 124.00,26.00
             124.00,26.00 122.00,16.00 122.00,16.00
             122.00,16.00 126.00,16.00 126.00,16.00 Z
           M 155.00,71.00
           C 155.00,71.00 154.00,71.00 154.00,71.00
             154.00,71.00 155.00,72.00 155.00,72.00
             155.00,72.00 155.00,71.00 155.00,71.00 Z
           M 223.00,233.00
           C 223.00,233.00 226.00,236.00 226.00,236.00
             226.00,236.00 223.00,233.00 223.00,233.00 Z
           M 207.00,237.00
           C 207.00,237.00 208.00,237.00 208.00,237.00
             208.00,237.00 207.00,238.00 207.00,238.00
             207.00,238.00 207.00,237.00 207.00,237.00 Z
           M 208.00,239.00
           C 208.00,239.00 209.00,239.00 209.00,239.00
             209.00,239.00 208.00,240.00 208.00,240.00
             208.00,240.00 208.00,239.00 208.00,239.00 Z
           M 211.00,239.00
           C 211.00,239.00 212.00,239.00 212.00,239.00
             212.00,239.00 211.00,240.00 211.00,240.00
             211.00,240.00 211.00,239.00 211.00,239.00 Z
           M 211.00,241.00
           C 211.00,241.00 212.00,241.00 212.00,241.00
             212.00,241.00 211.00,242.00 211.00,242.00
             211.00,242.00 211.00,241.00 211.00,241.00 Z
           M 225.00,241.00
           C 225.00,241.00 226.00,241.00 226.00,241.00
             226.00,241.00 225.00,242.00 225.00,242.00
             225.00,242.00 225.00,241.00 225.00,241.00 Z" />
</svg>
