<?xml version="1.0" encoding="UTF-8" standalone="no"?>
<!DOCTYPE svg PUBLIC "-//W3C//DTD SVG 20010904//EN"
              "http://www.w3.org/TR/2001/REC-SVG-20010904/DTD/svg10.dtd">

<svg xmlns="http://www.w3.org/2000/svg"
     width="1.18667in" height="2.8in"
     viewBox="0 0 356 840">
  <path id="Selection"
        fill="none" stroke="black" stroke-width="1"
        d="M 146.00,117.00
           C 149.27,115.61 151.33,114.30 153.95,111.83
             155.68,110.20 157.15,108.44 158.40,106.42
             167.59,91.64 140.74,86.02 143.35,73.00
             144.52,67.17 151.05,65.51 154.79,61.79
             154.79,61.79 162.52,51.15 162.52,51.15
             164.41,49.12 166.15,48.05 169.00,48.71
             170.29,49.01 171.78,49.83 172.78,50.65
             185.58,60.74 166.41,66.61 172.78,77.00
             176.40,83.01 184.54,86.23 186.22,91.04
             187.78,95.49 183.74,101.40 183.43,106.00
             183.12,110.49 186.22,114.84 189.10,118.00
             196.84,126.47 200.30,126.44 210.00,130.45
             213.76,132.01 218.86,134.54 219.63,138.98
             221.22,148.16 203.63,140.32 203.49,149.00
             203.40,154.22 211.92,152.14 215.00,152.00
             214.05,157.53 211.87,157.88 207.00,160.00
             207.00,160.00 207.00,162.00 207.00,162.00
             207.00,162.00 214.00,164.00 214.00,164.00
             215.24,174.60 225.15,171.47 229.00,177.00
             223.42,179.71 220.75,184.63 218.00,190.00
             218.00,190.00 225.00,193.00 225.00,193.00
             225.00,193.00 228.96,194.82 228.96,194.82
             234.93,198.22 232.88,202.07 229.81,202.60
             225.96,203.27 221.49,198.40 217.49,203.24
             216.87,203.98 216.35,204.92 216.34,205.91
             216.30,208.43 220.14,210.56 221.83,212.21
             225.70,215.99 227.99,219.71 229.00,225.00
             218.87,222.54 202.35,226.67 192.00,229.00
             197.71,238.67 202.36,233.06 205.00,241.00
             214.50,240.48 216.83,235.76 226.00,240.00
             226.00,240.00 223.41,253.00 223.41,253.00
             223.41,253.00 220.13,258.99 220.13,258.99
             219.58,260.65 219.68,262.70 221.57,263.41
             223.57,264.16 226.16,262.08 231.00,262.76
             243.38,264.48 239.72,268.43 255.00,265.00
             255.00,265.00 260.00,274.00 260.00,274.00
             260.00,274.00 233.00,272.00 233.00,272.00
             238.07,277.08 243.55,278.58 250.00,281.00
             246.16,285.24 241.64,286.32 236.00,285.90
             228.70,285.37 222.43,278.59 222.00,291.00
             215.02,289.00 210.10,284.57 207.00,278.00
             192.21,282.42 194.23,287.80 183.00,289.00
             189.94,297.81 199.69,297.88 210.00,298.09
             210.00,298.09 217.83,298.09 217.83,298.09
             220.09,297.77 221.13,296.44 224.04,296.18
             228.07,295.82 231.51,298.00 234.00,298.10
             237.83,298.25 240.40,294.87 243.78,296.36
             246.47,297.55 249.00,305.19 250.00,307.82
             239.44,312.89 235.56,307.26 230.04,307.82
             230.04,307.82 220.00,312.00 220.00,312.00
             219.41,310.17 218.74,306.90 217.41,305.60
             215.40,303.63 211.64,304.10 209.00,303.83
             200.20,302.93 202.05,301.21 192.00,303.00
             198.88,310.48 204.94,318.20 215.00,321.48
             217.64,322.34 220.23,323.06 223.00,322.42
             225.63,321.82 228.01,319.68 230.69,321.65
             233.20,323.51 235.40,331.56 227.00,333.00
             227.00,333.00 228.00,344.00 228.00,344.00
             231.97,335.86 231.90,336.68 237.80,330.02
             239.87,327.67 241.42,324.75 245.04,325.48
             248.96,326.27 251.42,330.37 257.00,333.00
             257.00,333.00 261.00,326.00 261.00,326.00
             261.00,326.00 268.00,329.00 268.00,329.00
             262.63,338.78 250.74,329.33 252.00,342.00
             247.57,343.02 247.07,343.11 243.00,341.00
             243.00,341.00 240.00,347.00 240.00,347.00
             252.58,349.22 250.41,343.67 262.08,350.62
             263.86,351.68 265.82,352.40 266.93,354.27
             268.05,356.17 267.25,358.67 270.00,365.00
             259.63,367.75 260.60,366.21 253.00,367.30
             253.00,367.30 234.00,370.50 234.00,370.50
             234.00,370.50 227.04,370.50 227.04,370.50
             223.88,370.89 222.71,372.96 219.91,373.48
             217.23,373.98 214.70,372.68 212.00,372.41
             208.60,372.08 206.51,373.28 203.09,371.53
             199.29,369.59 197.66,365.55 193.00,363.51
             186.29,360.57 183.83,364.16 176.00,359.00
             176.22,360.86 176.21,362.10 177.17,363.83
             180.10,369.11 195.37,380.11 201.00,383.46
             203.70,385.07 207.81,388.08 211.00,387.77
             216.46,387.24 219.40,380.70 222.26,379.64
             224.98,378.63 227.81,380.58 231.00,380.47
             234.36,380.34 237.70,378.06 239.98,377.78
             245.10,377.13 244.67,382.36 248.22,383.01
             249.94,383.33 253.07,381.79 255.00,381.19
             257.49,380.87 261.37,381.00 264.07,381.19
             262.61,379.03 258.87,372.86 264.07,372.70
             266.45,372.63 270.59,375.45 273.00,376.39
             277.20,378.04 280.61,377.99 285.00,378.00
             285.00,378.00 281.98,384.04 281.98,384.04
             280.16,388.35 280.48,394.25 269.00,391.00
             269.00,391.00 268.00,396.00 268.00,396.00
             273.73,399.21 273.94,402.97 274.00,409.00
             269.58,408.39 266.18,406.17 264.22,406.68
             260.95,407.53 260.27,414.26 256.27,413.18
             253.88,412.53 254.26,409.22 252.98,407.14
             251.40,404.59 249.68,404.44 247.00,404.00
             247.00,404.00 247.00,412.00 247.00,412.00
             242.17,409.59 242.50,407.54 237.00,408.00
             237.00,408.00 245.97,416.14 245.97,416.14
             245.97,416.14 245.97,428.00 245.97,428.00
             230.84,427.66 236.06,419.81 224.00,420.00
             224.00,420.00 229.00,425.00 229.00,425.00
             227.57,425.43 223.33,426.29 222.42,427.02
             219.31,429.50 223.42,434.52 226.09,435.75
             229.33,436.69 230.49,434.30 237.00,435.75
             237.00,435.75 234.00,443.00 234.00,443.00
             236.57,443.62 246.63,445.00 248.83,444.32
             251.94,443.35 253.68,439.45 258.95,440.24
             264.44,441.08 262.87,446.35 259.85,447.94
             256.65,449.62 254.49,446.93 249.00,447.00
             255.60,453.00 262.29,456.70 271.00,458.76
             273.70,459.40 283.95,460.91 285.49,462.02
             286.95,463.06 287.32,464.47 288.00,466.00
             288.00,466.00 281.00,467.00 281.00,467.00
             281.00,467.00 284.00,475.00 284.00,475.00
             280.27,475.00 274.24,474.57 271.48,477.51
             267.85,481.39 272.87,488.05 265.00,487.00
             266.10,478.36 261.04,480.72 258.00,472.00
             252.32,477.13 256.00,479.19 261.00,483.00
             260.45,484.53 260.36,485.29 259.28,486.84
             252.30,495.56 248.52,485.61 240.00,486.84
             244.55,490.69 251.96,494.77 258.00,494.81
             263.66,494.85 272.24,486.00 274.00,496.00
             284.83,493.80 283.96,488.13 298.00,488.00
             295.76,499.72 284.10,501.14 294.00,507.00
             293.08,510.81 290.65,516.88 285.47,513.79
             283.37,512.54 282.81,509.40 279.89,509.44
             277.35,509.47 273.94,512.92 270.00,513.56
             270.00,513.56 261.00,513.00 261.00,513.00
             264.03,519.64 260.18,519.31 259.76,525.00
             259.76,525.00 259.76,533.00 259.76,533.00
             268.35,533.93 277.49,532.27 285.00,528.52
             288.23,526.91 301.06,520.20 303.85,520.52
             310.64,521.31 304.80,530.54 303.00,533.00
             309.46,532.68 315.10,530.16 319.70,525.49
             322.12,523.03 323.99,516.07 328.69,517.71
             331.33,518.63 330.75,522.17 331.89,524.98
             333.24,528.33 335.08,529.26 338.00,531.00
             338.00,531.00 338.00,533.00 338.00,533.00
             338.00,533.00 326.00,535.00 326.00,535.00
             329.19,538.16 336.44,544.08 337.82,548.00
             338.98,551.30 337.77,554.53 333.95,554.67
             333.95,554.67 325.00,553.00 325.00,553.00
             326.52,560.16 330.55,561.49 330.09,564.91
             329.74,567.48 326.37,569.55 324.00,569.85
             324.00,569.85 305.00,568.00 305.00,568.00
             305.00,568.00 306.00,577.00 306.00,577.00
             306.00,577.00 288.04,576.40 288.04,576.40
             288.04,576.40 283.00,573.00 283.00,573.00
             283.00,573.00 283.00,574.00 283.00,574.00
             283.00,574.00 281.00,574.00 281.00,574.00
             281.00,574.00 292.00,588.00 292.00,588.00
             296.51,584.86 297.43,583.64 303.00,583.00
             302.98,585.33 303.06,587.75 302.35,590.00
             299.17,600.15 293.05,597.16 289.00,597.61
             286.53,597.89 284.83,598.93 282.09,598.40
             278.76,597.98 275.90,594.81 270.05,598.40
             266.79,600.30 259.14,614.83 270.05,612.52
             277.99,610.82 280.80,604.56 294.00,606.00
             291.75,612.44 287.88,613.46 282.00,616.00
             282.00,616.00 283.85,619.00 283.85,619.00
             288.46,628.20 276.62,625.06 272.00,626.00
             278.75,628.79 271.39,633.12 267.00,632.68
             262.34,632.22 260.39,628.03 255.00,625.00
             255.00,625.00 254.00,626.00 254.00,626.00
             254.00,626.00 257.00,631.79 257.00,631.79
             252.98,633.85 250.12,634.82 246.38,631.79
             244.96,630.36 243.68,628.07 242.22,627.45
             240.04,626.52 237.82,628.60 235.00,628.00
             232.08,627.39 229.87,624.45 227.00,623.01
             227.00,623.01 219.00,620.96 219.00,620.96
             212.76,619.09 207.12,614.18 204.45,616.90
             202.32,619.06 204.14,622.78 205.65,624.72
             209.53,629.70 217.27,635.71 223.00,638.53
             227.63,640.80 236.14,645.19 241.00,645.92
             243.42,646.48 247.34,646.03 250.00,645.92
             250.00,645.92 275.00,645.92 275.00,645.92
             275.00,645.92 294.00,641.00 294.00,641.00
             291.11,649.01 284.43,648.09 283.60,652.21
             283.28,653.83 285.30,657.35 286.00,659.00
             286.00,659.00 276.72,661.01 276.72,661.01
             271.30,662.27 266.89,666.16 263.00,660.00
             249.87,661.17 253.14,652.86 242.00,653.00
             243.55,656.64 244.18,656.92 245.99,660.00
             248.48,664.25 248.04,669.23 242.00,668.50
             234.33,667.58 235.25,660.35 224.00,661.00
             221.89,649.42 218.27,642.48 210.22,633.66
             204.52,627.43 201.93,628.10 192.00,616.00
             192.87,622.43 197.41,633.44 200.83,638.99
             200.83,638.99 205.87,646.17 205.87,646.17
             208.53,651.37 210.16,671.55 208.00,677.00
             208.00,677.00 198.25,658.00 198.25,658.00
             198.25,658.00 191.29,643.00 191.29,643.00
             189.01,638.57 187.35,632.70 183.00,630.00
             182.42,641.89 182.47,646.47 187.13,658.00
             187.13,658.00 193.55,670.00 193.55,670.00
             193.55,670.00 202.45,695.00 202.45,695.00
             202.45,695.00 209.86,713.00 209.86,713.00
             209.86,713.00 214.00,722.00 214.00,722.00
             212.21,722.31 209.78,722.88 208.00,722.61
             195.53,720.71 193.31,699.60 188.00,691.00
             188.00,691.00 191.32,746.00 191.32,746.00
             191.32,746.00 190.61,751.00 190.61,751.00
             190.61,751.00 192.83,774.00 192.83,774.00
             192.83,774.00 194.00,799.00 194.00,799.00
             194.00,799.00 195.00,822.00 195.00,822.00
             195.00,822.00 162.00,822.00 162.00,822.00
             162.00,822.00 162.00,805.00 162.00,805.00
             162.00,805.00 161.00,790.00 161.00,790.00
             161.00,790.00 157.00,713.00 157.00,713.00
             157.00,713.00 156.09,701.00 156.09,701.00
             156.09,701.00 154.91,679.00 154.91,679.00
             154.91,679.00 154.04,671.00 154.04,671.00
             153.73,663.94 153.65,647.72 151.00,642.00
             146.94,653.10 141.51,661.27 140.90,673.83
             140.49,682.44 139.66,685.97 148.00,689.00
             148.00,689.00 140.19,699.17 140.19,699.17
             140.19,699.17 139.00,708.00 139.00,708.00
             133.00,705.47 124.23,704.81 121.16,698.91
             120.09,696.85 119.38,688.85 119.00,686.00
             113.48,689.90 111.45,689.00 105.00,689.00
             105.00,689.00 105.00,680.00 105.00,680.00
             113.86,679.43 116.62,682.37 124.00,673.00
             121.13,672.35 114.49,670.62 112.00,669.44
             109.86,668.42 107.12,666.09 105.00,665.82
             103.07,665.57 98.38,667.73 96.00,668.33
             87.25,670.57 77.92,670.65 77.00,682.00
             77.00,682.00 64.00,680.90 64.00,680.90
             64.00,680.90 56.09,682.74 56.09,682.74
             56.09,682.74 44.00,677.00 44.00,677.00
             44.00,677.00 44.00,674.00 44.00,674.00
             44.00,674.00 52.00,667.00 52.00,667.00
             44.51,666.38 46.09,671.34 40.00,672.29
             37.39,672.69 24.52,671.97 28.08,666.57
             28.97,665.21 34.20,663.76 36.00,663.00
             22.68,660.61 17.02,664.80 18.00,655.00
             8.72,653.49 10.18,647.50 10.00,640.00
             25.04,640.75 29.37,652.79 43.00,655.69
             52.07,657.62 55.25,662.09 56.00,653.00
             52.26,652.66 41.96,650.15 40.17,646.65
             39.27,644.89 40.48,643.78 42.15,643.62
             42.15,643.62 49.00,643.62 49.00,643.62
             49.00,643.62 61.00,641.00 61.00,641.00
             59.61,639.43 54.61,634.26 57.64,632.09
             58.63,631.43 59.97,631.72 61.02,632.09
             67.56,634.16 68.93,639.92 79.00,641.00
             79.00,641.00 78.00,634.00 78.00,634.00
             85.48,634.62 83.62,637.75 87.13,638.43
             90.15,639.01 96.69,633.88 99.00,632.00
             98.05,631.42 97.29,631.16 96.43,630.31
             89.24,623.32 103.48,621.00 107.00,619.49
             108.83,618.71 109.45,618.11 111.00,617.00
             109.66,616.16 107.42,614.62 106.00,614.15
             101.66,612.72 92.53,616.78 88.00,618.00
             88.00,618.00 89.00,626.99 89.00,626.99
             86.36,626.93 81.26,625.95 79.21,626.99
             76.52,628.35 74.76,633.28 70.13,631.81
             64.44,629.99 70.22,622.47 65.89,621.62
             63.61,621.17 62.01,624.43 58.96,625.10
             55.33,625.91 51.14,622.57 48.72,623.49
             46.68,624.28 46.19,627.17 45.03,628.40
             43.41,630.14 41.18,629.92 39.00,630.00
             35.08,623.42 32.50,629.79 21.00,627.00
             21.00,627.00 25.00,622.00 25.00,622.00
             15.68,620.76 21.14,617.53 17.98,612.33
             16.28,609.52 12.41,608.47 11.00,606.37
             8.51,602.68 12.10,593.48 14.00,590.00
             14.00,590.00 19.00,595.00 19.00,595.00
             27.13,594.32 23.65,599.53 34.00,604.12
             45.89,609.39 62.10,611.02 75.00,611.00
             81.68,610.99 82.57,611.27 88.00,607.00
             83.70,604.06 80.43,601.03 75.00,600.36
             70.67,599.83 67.42,601.73 64.00,601.72
             59.91,601.71 58.45,599.63 55.00,598.55
             51.49,597.46 48.18,598.55 44.21,595.35
             34.34,587.42 42.47,571.55 51.00,573.33
             56.52,574.49 59.41,582.54 64.72,583.60
             67.24,584.10 70.67,581.28 73.00,580.13
             73.00,580.13 92.00,571.00 92.00,571.00
             77.17,562.92 53.98,569.07 52.00,552.00
             61.69,551.78 64.13,548.26 68.00,549.06
             71.91,549.88 74.79,554.77 77.96,555.23
             81.79,555.78 82.19,550.73 89.00,551.12
             96.84,551.57 99.25,558.43 105.00,558.45
             108.48,558.46 113.13,555.26 116.00,553.41
             125.51,547.26 136.61,538.16 137.00,526.00
             137.00,526.00 123.00,527.18 123.00,527.18
             123.00,527.18 110.09,528.95 110.09,528.95
             110.09,528.95 99.00,534.00 99.00,534.00
             99.00,534.00 85.00,514.00 85.00,514.00
             85.00,514.00 84.18,518.98 84.18,518.98
             82.57,525.68 77.59,525.32 76.03,523.39
             73.74,520.57 77.57,515.45 69.98,511.76
             64.51,509.29 61.10,512.56 57.13,511.76
             54.51,511.04 53.44,508.87 51.74,507.02
             47.57,502.46 44.85,501.96 42.00,495.99
             39.64,496.57 36.65,497.47 34.43,495.99
             31.27,493.85 31.39,487.24 35.23,485.83
             38.57,484.61 42.80,487.65 46.00,488.51
             51.26,489.91 62.33,490.06 68.00,490.00
             85.86,489.79 102.96,484.56 119.00,477.00
             114.11,474.32 116.13,472.77 112.74,469.06
             107.81,463.69 96.54,463.01 106.05,456.05
             106.05,456.05 110.00,453.00 110.00,453.00
             110.00,453.00 96.00,451.00 96.00,451.00
             96.00,451.00 95.00,470.00 95.00,470.00
             90.84,469.95 89.62,470.50 87.00,467.00
             80.27,469.79 78.08,466.91 72.00,464.00
             72.00,467.45 73.14,476.08 67.07,474.36
             64.31,473.57 64.06,471.49 60.68,471.21
             58.87,471.07 57.28,471.77 55.60,470.22
             53.20,468.00 55.00,464.23 54.66,462.06
             54.16,458.85 49.92,456.95 47.01,456.60
             43.16,456.13 42.16,458.88 38.91,459.52
             36.18,460.05 34.48,458.76 32.00,458.47
             28.61,458.07 23.57,460.09 20.56,457.83
             18.37,456.18 16.52,448.88 18.04,446.49
             18.04,446.49 24.74,440.90 24.74,440.90
             26.27,439.29 27.89,436.29 30.11,435.74
             33.46,434.92 35.60,438.82 38.09,440.39
             40.93,442.19 42.93,441.51 46.00,441.00
             46.00,441.00 46.00,439.00 46.00,439.00
             42.70,436.76 43.22,435.69 44.00,432.00
             49.32,435.54 50.82,435.00 57.00,435.00
             57.00,435.00 57.00,446.00 57.00,446.00
             69.80,441.62 72.44,439.56 82.00,430.00
             82.00,430.00 78.00,423.00 78.00,423.00
             86.12,422.06 87.95,417.25 90.00,410.00
             86.51,410.00 81.23,409.74 78.00,410.63
             74.97,411.46 71.22,413.96 68.05,413.08
             64.44,412.08 61.71,406.79 65.00,404.00
             63.37,401.85 56.66,395.20 58.17,392.64
             60.50,388.66 71.74,395.28 74.00,397.00
             71.00,383.09 61.55,390.24 52.00,388.00
             52.00,388.00 52.00,385.00 52.00,385.00
             59.89,380.26 53.14,378.05 53.76,372.09
             54.00,369.75 55.50,368.58 57.00,367.00
             54.37,365.98 50.02,364.53 49.99,361.04
             49.98,359.93 50.44,359.10 51.47,358.80
             51.47,358.80 61.00,358.80 61.00,358.80
             66.02,358.57 68.95,355.68 72.00,352.00
             68.11,352.00 62.68,351.77 59.00,352.51
             53.50,353.62 46.57,356.36 41.04,354.11
             35.77,351.97 35.26,347.82 40.06,344.67
             41.87,343.48 49.19,339.30 51.00,338.87
             53.38,338.29 54.93,339.12 60.00,338.00
             55.98,329.26 60.95,328.53 63.36,330.62
             65.11,332.14 66.24,335.82 67.00,338.00
             74.18,333.91 74.23,334.40 80.83,328.66
             84.61,325.38 88.08,321.34 93.00,319.80
             102.42,316.86 106.80,322.55 112.00,322.47
             121.06,322.32 133.08,307.95 138.00,301.00
             133.15,300.13 117.24,299.26 122.04,290.30
             122.75,288.97 123.95,288.03 125.00,287.00
             122.84,287.25 121.21,287.28 119.41,288.74
             117.30,290.45 116.59,293.42 114.45,295.58
             111.68,298.38 102.08,301.63 98.59,298.98
             97.39,298.06 97.43,297.23 97.00,296.00
             97.00,296.00 105.00,295.00 105.00,295.00
             105.00,295.00 101.84,287.11 101.84,287.11
             97.62,280.11 90.72,284.39 85.00,286.00
             85.00,286.00 85.00,288.00 85.00,288.00
             93.29,289.34 96.15,284.88 100.00,292.00
             100.00,292.00 88.00,294.25 88.00,294.25
             81.64,295.52 78.48,299.90 75.00,292.00
             75.00,292.00 65.00,293.00 65.00,293.00
             67.86,285.78 65.20,285.99 63.00,279.00
             64.87,279.37 67.60,280.16 69.42,279.78
             72.55,279.12 76.90,274.99 82.00,274.37
             86.94,273.77 89.50,276.74 94.00,277.18
             98.70,277.65 104.24,274.89 109.00,274.31
             113.80,273.74 115.37,275.60 120.00,273.18
             124.68,270.75 138.93,260.78 133.40,254.43
             128.54,248.86 124.29,257.63 122.37,259.02
             120.88,260.10 113.98,261.71 112.00,261.90
             104.81,262.56 100.50,260.69 94.00,260.18
             92.11,260.03 87.96,260.55 86.58,259.66
             84.08,258.04 86.23,253.79 84.02,251.90
             82.02,250.18 78.27,252.86 75.56,250.96
             73.83,249.75 73.52,246.94 72.59,245.13
             71.16,242.35 68.79,241.21 68.74,239.03
             68.63,234.01 81.17,236.49 83.94,237.00
             83.94,237.00 83.94,242.00 83.94,242.00
             83.79,252.32 92.04,243.97 93.83,240.00
             94.84,237.77 94.17,235.67 96.35,233.93
             101.79,229.60 111.60,235.27 115.00,224.00
             126.86,224.00 143.49,225.03 149.28,212.02
             151.13,207.86 154.62,205.09 153.08,203.20
             151.14,200.81 144.50,203.51 142.00,204.10
             138.79,204.87 126.78,206.31 124.04,205.26
             121.18,204.16 119.51,201.56 117.85,200.90
             114.06,199.38 113.04,204.10 108.00,207.00
             106.34,202.77 93.92,189.22 106.00,189.29
             107.39,189.30 108.67,189.69 110.00,190.00
             110.75,188.93 111.08,187.99 112.41,187.38
             114.61,186.37 117.24,187.86 119.57,188.06
             124.72,188.50 128.51,185.78 130.00,181.00
             130.00,181.00 123.00,182.00 123.00,182.00
             118.37,175.76 117.19,176.08 110.00,177.00
             108.76,167.94 114.74,167.39 117.65,161.51
             117.65,161.51 119.20,151.00 119.20,151.00
             119.45,147.39 116.17,144.19 118.64,142.02
             120.58,140.32 126.18,141.51 131.00,140.48
             145.68,137.34 146.00,129.35 146.00,117.00 Z
           M 66.00,390.00
           C 66.00,390.00 67.00,390.00 67.00,390.00
             67.00,390.00 66.00,391.00 66.00,391.00
             66.00,391.00 66.00,390.00 66.00,390.00 Z
           M 39.00,429.00
           C 39.00,429.00 40.00,429.00 40.00,429.00
             40.00,429.00 39.00,430.00 39.00,430.00
             39.00,430.00 39.00,429.00 39.00,429.00 Z
           M 72.00,429.00
           C 72.00,429.00 73.00,429.00 73.00,429.00
             73.00,429.00 72.00,430.00 72.00,430.00
             72.00,430.00 72.00,429.00 72.00,429.00 Z
           M 333.00,570.00
           C 333.00,570.00 334.00,570.00 334.00,570.00
             334.00,570.00 333.00,571.00 333.00,571.00
             333.00,571.00 333.00,570.00 333.00,570.00 Z
           M 292.00,588.00
           C 292.00,588.00 291.00,588.00 291.00,588.00
             291.00,588.00 292.00,589.00 292.00,589.00
             292.00,589.00 292.00,588.00 292.00,588.00 Z
           M 188.00,610.00
           C 188.00,610.00 187.00,610.00 187.00,610.00
             187.00,610.00 188.00,611.00 188.00,611.00
             188.00,611.00 188.00,610.00 188.00,610.00 Z
           M 189.00,611.00
           C 189.00,611.00 188.00,611.00 188.00,611.00
             188.00,611.00 189.00,612.00 189.00,612.00
             189.00,612.00 189.00,611.00 189.00,611.00 Z
           M 121.00,703.00
           C 121.00,703.00 122.00,703.00 122.00,703.00
             122.00,703.00 121.00,704.00 121.00,704.00
             121.00,704.00 121.00,703.00 121.00,703.00 Z" />
</svg>
